#!OML:ASF G:\acrobat\cartwheel_test\acrobat_wednesday\Session 1\acrobatwednesday.ASF
:FULLY-SPECIFIED
:DEGREES
135
root -6.15155 16.8291 -4.62679 6.75287 -51.688 8.02012
lowerback 5.71854 -3.3195 -3.96048
upperback 2.14234 -4.62925 1.55636
thorax -0.543865 -2.35055 4.08651
lowerneck -20.6629 18.7379 4.28743
upperneck 15.8886 27.1958 -11.797
head 10.6886 11.5461 -0.213447
rclavicle 9.14409e-015 -4.73108e-014
rhumerus -33.3057 -26.9591 -30.4985
rradius 21.8718
rwrist 36.4159
rhand -21.6389 4.97404
rfingers 7.12502
rthumb 4.75741 -24.9525
lclavicle 9.14409e-015 -4.73108e-014
lhumerus -3.9345 -12.9809 60.8783
lradius 40.489
lwrist 19.2009
lhand -17.4349 -16.4101
lfingers 7.12502
lthumb 8.81566 13.3857
rfemur -23.9358 19.0468 2.73445
rtibia 14.8165
rfoot -9.49439 -0.260856
rtoes -55.8299
lfemur -8.17524 10.6513 -4.05133
ltibia 31.6423
lfoot -2.29251 -17.8987
ltoes -30.8232
136
root -6.09565 16.8204 -4.63356 7.00373 -52.2362 8.0692
lowerback 5.73962 -3.6738 -4.18377
upperback 1.94286 -5.11242 1.67971
thorax -0.681772 -2.58578 4.37023
lowerneck -20.4468 18.9037 4.28047
upperneck 15.7217 27.4361 -11.9377
head 10.6322 11.6619 -0.231568
rclavicle 1.37161e-014 9.93923e-015
rhumerus -33.8135 -25.9652 -27.7677
rradius 21.9628
rwrist 35.5778
rhand -21.7398 4.54967
rfingers 7.12502
rthumb 4.66004 -25.3791
lclavicle 1.37161e-014 9.93923e-015
lhumerus -3.41981 -13.4368 58.3612
lradius 41.4811
lwrist 19.3463
lhand -17.0401 -16.5575
lfingers 7.12502
lthumb 9.19669 13.222
rfemur -24.9155 18.0974 2.5796
rtibia 14.8317
rfoot -10.3118 -1.3561
rtoes -55.4126
lfemur -6.44719 9.26523 -3.93218
ltibia 30.2716
lfoot -4.47672 -19.1257
ltoes -22.3166
137
root -6.03987 16.8115 -4.64086 7.3028 -52.7822 8.06118
lowerback 5.69203 -4.03046 -4.41257
upperback 1.80508 -5.59692 1.78548
thorax -0.713083 -2.82545 4.62987
lowerneck -20.1824 19.1213 4.39767
upperneck 15.531 27.7121 -12.0846
head 10.5801 11.805 -0.261572
rclavicle -3.77691e-015 4.77083e-015
rhumerus -34.1168 -24.8097 -25.2529
rradius 22.1067
rwrist 34.2183
rhand -21.9655 3.79607
rfingers 7.12502
rthumb 4.44212 -26.1373
lclavicle -3.77691e-015 4.77083e-015
lhumerus -2.83162 -13.7057 55.5912
lradius 42.4629
lwrist 19.5657
lhand -16.6911 -16.9171
lfingers 7.12502
lthumb 9.53341 12.8472
rfemur -25.6902 17.8634 2.28654
rtibia 14.9819
rfoot -10.2868 -1.95362
rtoes -55.0254
lfemur -4.74535 7.90113 -3.86502
ltibia 28.9292
lfoot -5.07424 -20.3133
ltoes -20.21
138
root -5.9816 16.8032 -4.64943 7.66321 -53.3344 8.0056
lowerback 5.60948 -4.3368 -4.63375
upperback 1.70618 -6.01246 1.91766
thorax -0.68518 -3.03343 4.90298
lowerneck -20.0138 19.2278 3.97535
upperneck 15.2052 27.8788 -11.9592
head 10.3636 11.9137 -0.18179
rclavicle 1.22253e-014 1.43125e-014
rhumerus -34.3509 -23.0677 -22.9163
rradius 22.4657
rwrist 31.6266
rhand -21.6992 2.8233
rfingers 7.12502
rthumb 4.69924 -27.1046
lclavicle 1.22253e-014 1.43125e-014
lhumerus -2.20242 -13.7319 52.7678
lradius 43.5134
lwrist 19.8972
lhand -16.5115 -17.5149
lfingers 7.12502
lthumb 9.70667 12.2414
rfemur -26.3558 17.9746 2.01947
rtibia 14.3031
rfoot -10.8483 -1.76812
rtoes -54.7171
lfemur -3.14336 6.72418 -3.8416
ltibia 27.7233
lfoot -4.60424 -21.2266
ltoes -22.5206
139
root -5.91889 16.7936 -4.6593 8.05341 -53.9104 7.94888
lowerback 5.51018 -4.62337 -4.91271
upperback 1.61394 -6.40378 2.10329
thorax -0.626239 -3.23125 5.25845
lowerneck -19.7583 19.3243 3.34312
upperneck 14.7384 28.0793 -11.9189
head 10.0709 12.0361 -0.116929
rclavicle -4.88016e-014 -1.55052e-014
rhumerus -34.7097 -21.4892 -20.396
rradius 22.9696
rwrist 29.2809
rhand -21.6073 2.02727
rfingers 7.12502
rthumb 4.78793 -27.8986
lclavicle -4.88016e-014 -1.55052e-014
lhumerus -1.60724 -13.345 50.0313
lradius 44.5316
lwrist 20.2725
lhand -16.4268 -17.6536
lfingers 7.12502
lthumb 9.7884 12.0989
rfemur -27.0089 18.1881 1.68566
rtibia 16.5903
rfoot -8.46984 -2.43597
rtoes -54.376
lfemur -1.62327 5.85873 -3.90419
ltibia 26.5956
lfoot -4.72456 -21.9429
ltoes -25.6175
